<svg id="_003-linkedin-logo" data-name="003-linkedin-logo" xmlns="http://www.w3.org/2000/svg" width="510" height="510" viewBox="0 0 510 510">
  <g id="post-linkedin">
    <path id="Path_4" data-name="Path 4" d="M459,0H51A51.15,51.15,0,0,0,0,51V459a51.15,51.15,0,0,0,51,51H459a51.15,51.15,0,0,0,51-51V51A51.15,51.15,0,0,0,459,0ZM153,433.5H76.5V204H153ZM114.75,160.65a45.9,45.9,0,1,1,45.9-45.9A45.709,45.709,0,0,1,114.75,160.65ZM433.5,433.5H357V298.35c0-20.4-17.85-38.25-38.25-38.25s-38.25,17.851-38.25,38.25V433.5H204V204h76.5v30.6c12.75-20.4,40.8-35.7,63.75-35.7,48.45,0,89.25,40.8,89.25,89.25Z" fill="#fff"/>
  </g>
</svg>
