<svg xmlns="http://www.w3.org/2000/svg" width="512.016" height="477.962" viewBox="0 0 512.016 477.962">
  <g id="_006-snapchat" data-name="006-snapchat" transform="translate(0.002 -17.029)">
    <g id="Group_1" data-name="Group 1">
      <path id="Path_5" data-name="Path 5" d="M500.459,375.368c-64.521-10.633-93.918-75.887-97.058-83.294-.06-.145-.307-.666-.375-.819-3.234-6.571-4.036-11.9-2.347-15.838,3.388-8.013,17.741-12.553,26.931-15.462,2.586-.836,5.009-1.6,6.938-2.372,18.586-7.339,27.913-16.717,27.716-27.9-.179-8.866-7.134-17.007-17.434-20.651a31.506,31.506,0,0,0-11.887-2.295,26.689,26.689,0,0,0-11.1,2.287c-7.868,3.678-14.865,5.658-20.156,5.888a19.32,19.32,0,0,1-5.427-.922c.162-2.79.35-5.658.529-8.585l.094-1.493c2.193-34.807,4.915-78.123-6.673-104.081C355.938,23,283.209,17.029,261.73,17.029l-10.018.094c-21.436,0-94.029,5.965-128.265,82.756-11.614,26.018-8.866,69.316-6.664,104.115.213,3.422.427,6.758.614,10.01a19.916,19.916,0,0,1-6.46.947c-6.161,0-13.542-2-21.931-5.922-12.126-5.683-34.295,1.911-37.291,17.647-1.63,8.516,1.8,20.8,27.383,30.908,1.988.785,4.489,1.587,7.561,2.56,8.576,2.722,22.929,7.27,26.325,15.266,1.681,3.951.879,9.284-2.662,16.512-1.263,2.944-31.65,72.124-98.765,83.174A13.763,13.763,0,0,0,.02,389.449a17.627,17.627,0,0,0,1.4,5.9c5.641,13.193,27.119,22.349,67.55,28.766a84.831,84.831,0,0,1,2.509,9.737c.853,3.9,1.749,7.927,2.97,12.1,1.229,4.224,4.881,11.307,15.445,11.307a68.667,68.667,0,0,0,12.211-1.681,129.9,129.9,0,0,1,26.274-2.995,116.063,116.063,0,0,1,18.825,1.6c12.092,2.005,22.7,9.506,35,18.2,18.116,12.809,34.586,22.605,67.524,22.605.87,0,1.732-.026,2.577-.085,1.22.06,2.449.085,3.695.085,28.851,0,54.246-7.62,75.494-22.63,11.742-8.311,22.835-16.162,34.935-18.176a116.524,116.524,0,0,1,18.85-1.6,131.246,131.246,0,0,1,26.385,2.816,65.131,65.131,0,0,0,12.672,1.476c7.373,0,12.8-4.053,14.874-11.127,1.2-4.113,2.091-8.021,2.961-12.015a87.083,87.083,0,0,1,2.509-9.66c39.851-6.34,60.2-15.138,65.835-28.3a17.388,17.388,0,0,0,1.476-6.033A13.805,13.805,0,0,0,500.459,375.368Z" fill="#fff"/>
    </g>
  </g>
</svg>
