<svg xmlns="http://www.w3.org/2000/svg" width="57.821" height="49.052" viewBox="0 0 57.821 49.052">
  <g id="baby-book" transform="translate(-59.125 0)">
    <g id="Group_2" data-name="Group 2" transform="translate(59.125 0)">
      <g id="Group_1" data-name="Group 1" transform="translate(0)">
        <path id="Path_212" data-name="Path 212" d="M106.727,6.133h-2.67V4.021c0-2.248-2.441-4.068-5.34-4.02A6.894,6.894,0,0,0,97.524.13L69.058,6.155C66.248,6.271,64,8.041,64,10.22V44.965c0,2.254,2.4,4.088,5.34,4.088h37.383c2.945,0,5.34-1.833,5.34-4.088V10.22C112.068,7.966,109.673,6.133,106.727,6.133ZM98.21,2.1c1.555-.309,3.177.661,3.177,1.916V6.133H79.181ZM109.4,44.965c0,1.127-1.2,2.044-2.67,2.044H69.345c-1.472,0-2.67-.917-2.67-2.044V10.22c0-1.127,1.2-2.044,2.67-2.044h37.383c1.472,0,2.67.917,2.67,2.044Z" transform="translate(-59.125 0)" fill="#fff"/>
        <path id="Path_213" data-name="Path 213" d="M223.9,217.384a29.193,29.193,0,0,1-5.506.575c-12.145,0-22.025-7.165-22.025-15.973a11.655,11.655,0,0,1,.792-3.993,2.206,2.206,0,0,0-.957-2.553,4.687,4.687,0,0,0-3.517-.694c-12.963,2.436-22.014,10.888-22.014,20.552,0,11.743,13.174,21.3,29.366,21.3,13.325,0,24.978-6.565,28.337-15.966a2.2,2.2,0,0,0-.957-2.551A4.686,4.686,0,0,0,223.9,217.384Zm-23.86,13.886c-12.145,0-22.025-7.165-22.025-15.973,0-5.777,4.327-10.979,11.02-13.771,0,.153-.007.307-.007.46,0,11.9,13.658,21.589,30,21.293C215.176,228.131,208,231.269,200.037,231.269Z" transform="translate(-170.671 -190.631)" fill="#fff"/>
      </g>
    </g>
  </g>
</svg>
