<svg xmlns="http://www.w3.org/2000/svg" width="28.944" height="24.374" viewBox="0 0 28.944 24.374">
  <path id="search" d="M28.851,23.073l-7.333-6.192a.742.742,0,0,0-.483-.168H20.45c4.3-3.971,4.05-10.118-.566-13.829a13.292,13.292,0,0,0-16.385.2,8.826,8.826,0,0,0-.089,13.837,13.29,13.29,0,0,0,16.382.352v.489a.547.547,0,0,0,.2.408l7.333,6.192a.775.775,0,0,0,.966,0l.563-.475A.516.516,0,0,0,28.851,23.073ZM11.77,18.385c-5.526,0-10.008-3.78-10.009-8.446S6.242,1.488,11.768,1.49s10,3.784,10,8.45-4.476,8.446-10,8.445Z" transform="translate(-0.107 -0.159)" fill="#fff"/>
</svg>
